<svg width="60" height="60" viewBox="0 0 60 60" fill="none" xmlns="http://www.w3.org/2000/svg">
<path d="M56.25 25.3125C56.25 26.6104 55.8651 27.8792 55.144 28.9584C54.4229 30.0376 53.398 30.8788 52.1989 31.3755C50.9997 31.8722 49.6802 32.0021 48.4072 31.7489C47.1342 31.4957 45.9649 30.8707 45.0471 29.9529C44.1293 29.0351 43.5043 27.8658 43.2511 26.5928C42.9979 25.3198 43.1278 24.0003 43.6245 22.8011C44.1212 21.602 44.9624 20.5771 46.0416 19.856C47.1208 19.1349 48.3896 18.75 49.6875 18.75C51.428 18.75 53.0972 19.4414 54.3279 20.6721C55.5586 21.9028 56.25 23.572 56.25 25.3125ZM16.875 25.3125C16.875 24.0146 16.4901 22.7458 15.769 21.6666C15.0479 20.5874 14.023 19.7462 12.8239 19.2495C11.6247 18.7528 10.3052 18.6229 9.03222 18.8761C7.75922 19.1293 6.5899 19.7543 5.67211 20.6721C4.75433 21.5899 4.12932 22.7592 3.8761 24.0322C3.62288 25.3052 3.75284 26.6247 4.24954 27.8239C4.74624 29.023 5.58738 30.0479 6.66657 30.769C7.74577 31.4901 9.01456 31.875 10.3125 31.875C12.053 31.875 13.7222 31.1836 14.9529 29.9529C16.1836 28.7222 16.875 27.053 16.875 25.3125ZM21.5625 20.625C22.8604 20.625 24.1292 20.2401 25.2084 19.519C26.2876 18.7979 27.1288 17.773 27.6255 16.5739C28.1222 15.3747 28.2521 14.0552 27.9989 12.7822C27.7457 11.5092 27.1207 10.3399 26.2029 9.42211C25.2851 8.50433 24.1158 7.87931 22.8428 7.6261C21.5698 7.37288 20.2503 7.50284 19.0511 7.99954C17.852 8.49624 16.8271 9.33737 16.106 10.4166C15.3849 11.4958 15 12.7646 15 14.0625C15 15.803 15.6914 17.4722 16.9221 18.7029C18.1528 19.9336 19.822 20.625 21.5625 20.625ZM38.4375 20.625C39.7354 20.625 41.0042 20.2401 42.0834 19.519C43.1626 18.7979 44.0038 17.773 44.5005 16.5739C44.9972 15.3747 45.1271 14.0552 44.8739 12.7822C44.6207 11.5092 43.9957 10.3399 43.0779 9.42211C42.1601 8.50433 40.9908 7.87931 39.7178 7.6261C38.4448 7.37288 37.1253 7.50284 35.9261 7.99954C34.727 8.49624 33.7021 9.33737 32.981 10.4166C32.2599 11.4958 31.875 12.7646 31.875 14.0625C31.875 15.803 32.5664 17.4722 33.7971 18.7029C35.0278 19.9336 36.697 20.625 38.4375 20.625ZM43.8563 34.8891C42.9039 34.3636 42.0644 33.6556 41.386 32.8054C40.7075 31.9552 40.2034 30.9796 39.9023 29.9344C39.2789 27.7904 37.9765 25.9067 36.1909 24.5663C34.4052 23.226 32.2328 22.5013 30 22.5013C27.7673 22.5013 25.5948 23.226 23.8092 24.5663C22.0235 25.9067 20.7211 27.7904 20.0977 29.9344C19.4954 32.0376 18.0836 33.816 16.1719 34.8797C14.3379 35.872 12.8872 37.4475 12.0491 39.3568C11.2109 41.2662 11.0333 43.4005 11.5442 45.4221C12.0551 47.4437 13.2255 49.2373 14.8701 50.5192C16.5147 51.8011 18.5398 52.4981 20.625 52.5C21.8746 52.5035 23.1119 52.2539 24.2625 51.7664C27.9307 50.2539 32.0482 50.2539 35.7164 51.7664C37.9382 52.7327 40.4478 52.8013 42.719 51.9579C44.9903 51.1145 46.8468 49.4245 47.8994 47.2424C48.952 45.0602 49.119 42.5552 48.3652 40.2526C47.6114 37.9501 45.9955 36.0287 43.8563 34.8914V34.8891Z" fill="#FF6F61"/>
</svg>
