<svg width="1089" height="689" viewBox="0 0 1089 689" fill="none" xmlns="http://www.w3.org/2000/svg">
<path opacity="0.0416667" d="M343.813 596.666C443.306 439.497 268.681 286.137 336.372 217.647C404.063 149.157 595.741 -94.1947 517.285 -127.977C454.52 -155.003 309.051 -140.258 244.161 -129.507" stroke="white" stroke-opacity="0.16" stroke-width="1.26285"/>
<path opacity="0.0833333" d="M337.498 590.351C450.31 442.451 289.716 274.456 363.119 212.126C436.522 149.796 648.68 -75.9238 573.467 -116.415C513.296 -148.809 367.095 -146.798 301.516 -141.744" stroke="white" stroke-opacity="0.16" stroke-width="1.26285"/>
<path opacity="0.125" d="M331.183 584.038C456.456 446.532 311.115 265.18 389.671 209.485C468.227 153.79 699.251 -52.5808 627.853 -99.4735C570.734 -136.988 424.914 -147.727 359.144 -148.408" stroke="white" stroke-opacity="0.16" stroke-width="1.26285"/>
<path opacity="0.166667" d="M324.871 577.722C461.652 451.659 332.67 258.329 415.781 209.692C498.891 161.056 747.023 -24.3945 679.983 -77.3314C626.352 -119.681 482.023 -143.089 416.562 -149.499" stroke="white" stroke-opacity="0.16" stroke-width="1.26285"/>
<path opacity="0.208333" d="M318.556 571.409C465.803 457.746 354.162 253.91 441.196 212.702C528.229 171.494 791.579 8.37608 729.409 -50.2023C679.673 -97.065 537.933 -132.963 473.28 -145.054" stroke="white" stroke-opacity="0.16" stroke-width="1.26285"/>
<path opacity="0.25" d="M312.24 565.095C468.834 464.698 375.383 251.908 465.677 218.442C555.97 184.977 832.535 45.4316 775.707 -18.3424C730.244 -69.3616 592.172 -117.476 528.819 -135.156" stroke="white" stroke-opacity="0.16" stroke-width="1.26285"/>
<path opacity="0.291667" d="M305.928 558.78C470.676 472.413 396.126 252.288 488.993 226.819C581.86 201.351 869.534 86.4408 818.48 17.9566C777.637 -36.8308 644.285 -96.7961 582.713 -119.93" stroke="white" stroke-opacity="0.16" stroke-width="1.26285"/>
<path opacity="0.333333" d="M299.613 552.466C471.261 480.787 416.18 255.001 510.914 237.724C605.647 220.446 902.242 131.046 857.351 58.3724C821.438 0.233811 693.819 -71.1258 634.499 -99.5382" stroke="white" stroke-opacity="0.16" stroke-width="1.26285"/>
<path opacity="0.375" d="M293.298 546.151C470.54 489.705 435.348 259.978 531.226 251.022C627.105 242.067 930.363 178.857 891.977 102.548C861.268 41.5004 740.354 -40.7104 683.735 -74.1849" stroke="white" stroke-opacity="0.16" stroke-width="1.26285"/>
<path opacity="0.416667" d="M286.985 539.837C468.473 499.053 453.436 267.134 549.731 266.569C646.025 266.004 953.638 229.465 922.049 150.1C896.777 86.6089 783.489 -5.82734 730.003 -44.109" stroke="white" stroke-opacity="0.16" stroke-width="1.26285"/>
<path opacity="0.458333" d="M280.671 533.522C465.022 508.711 470.256 276.363 566.233 284.193C662.21 292.023 971.837 282.433 947.285 200.618C927.644 135.165 822.842 33.2068 772.897 -9.59082" stroke="white" stroke-opacity="0.16" stroke-width="1.26285"/>
<path opacity="0.5" d="M274.356 527.208C460.168 518.559 485.632 287.552 580.562 303.716C675.491 319.881 984.776 337.314 967.448 253.67C953.586 186.755 858.069 76.0504 812.044 29.0626" stroke="white" stroke-opacity="0.16" stroke-width="1.26285"/>
<path opacity="0.541667" d="M268.043 520.895C453.902 528.473 499.403 300.564 592.563 324.941C685.722 349.318 992.31 393.64 982.339 308.804C974.361 240.935 888.857 122.327 847.102 71.5071" stroke="white" stroke-opacity="0.16" stroke-width="1.26285"/>
<path opacity="0.583333" d="M261.727 514.581C446.219 538.329 511.41 315.253 602.091 347.656C692.771 380.06 994.329 450.934 991.79 365.552C989.758 297.246 914.916 171.638 877.749 117.371" stroke="white" stroke-opacity="0.16" stroke-width="1.26285"/>
<path opacity="0.625" d="M255.412 508.266C437.132 548.003 521.518 331.457 609.029 371.641C696.54 411.825 990.774 508.712 995.685 423.433C999.614 355.21 936.005 223.557 903.709 166.258" stroke="white" stroke-opacity="0.16" stroke-width="1.26285"/>
<path opacity="0.666667" d="M249.1 501.952C426.665 557.376 529.603 349.009 613.278 396.667C696.954 444.325 981.624 566.488 993.949 481.962C1003.81 414.341 951.917 277.644 924.738 217.748" stroke="white" stroke-opacity="0.16" stroke-width="1.26285"/>
<path opacity="0.708333" d="M242.785 495.638C414.844 566.327 535.55 367.725 614.754 422.494C693.958 477.264 966.897 623.772 986.542 540.642C1002.26 474.138 962.477 333.438 940.622 271.402" stroke="white" stroke-opacity="0.16" stroke-width="1.26285"/>
<path opacity="0.75" d="M236.47 489.323C401.713 574.739 539.269 387.412 613.398 448.876C687.527 510.34 946.659 680.08 973.475 598.978C994.928 534.097 967.56 390.466 951.195 326.76" stroke="white" stroke-opacity="0.16" stroke-width="1.26285"/>
<path opacity="0.791667" d="M230.158 483.009C387.327 582.502 540.687 407.877 609.177 475.568C677.667 543.259 921.019 734.937 954.801 656.481C981.827 593.716 967.082 448.247 956.331 383.358" stroke="white" stroke-opacity="0.16" stroke-width="1.26285"/>
<path opacity="0.833333" d="M223.842 476.694C371.742 589.506 539.738 428.913 602.067 502.315C664.397 575.718 890.117 787.876 930.609 712.663C963.002 652.492 960.991 506.291 955.937 440.712" stroke="white" stroke-opacity="0.16" stroke-width="1.26285"/>
<path opacity="0.875" d="M217.527 470.38C355.032 595.653 536.385 450.312 592.08 528.868C647.775 607.424 854.146 838.448 901.038 767.05C938.552 709.931 949.292 564.111 949.972 498.341" stroke="white" stroke-opacity="0.16" stroke-width="1.26285"/>
<path opacity="0.916667" d="M211.215 464.067C337.278 600.847 530.608 471.865 579.245 554.976C627.881 638.087 813.331 886.218 866.268 819.179C908.618 765.548 932.026 621.219 938.436 555.758" stroke="white" stroke-opacity="0.16" stroke-width="1.26285"/>
<path opacity="0.958333" d="M204.9 457.752C318.562 604.999 522.398 493.358 563.606 580.391C604.814 667.425 767.932 930.775 826.511 868.604C873.373 818.868 909.271 677.128 921.362 612.476" stroke="white" stroke-opacity="0.16" stroke-width="1.26285"/>
<path d="M198.585 451.438C298.982 608.031 511.772 514.58 545.238 604.874C578.703 695.168 718.248 971.733 782.022 914.904C833.041 869.442 881.156 731.37 898.836 668.017" stroke="white" stroke-opacity="0.16" stroke-width="1.26285"/>
</svg>
