<svg width="126" height="127" viewBox="0 0 126 127" fill="none" xmlns="http://www.w3.org/2000/svg">
<g clip-path="url(#clip0_266_679)">
<path d="M42.114 44.2896C45.9206 47.8114 51.774 47.675 55.188 43.985C58.6019 40.2949 58.2837 34.4486 54.4771 30.9268C50.6705 27.405 44.8171 27.5414 41.4031 31.2314C37.9891 34.9215 38.3074 40.7678 42.114 44.2896Z" fill="#F6F6F6" fill-opacity="0.06"/>
<path d="M64.4106 45.0773C68.2172 48.5991 74.0706 48.4627 77.4846 44.7727C80.8986 41.0826 80.5803 35.2363 76.7737 31.7145C72.9671 28.1927 67.1137 28.3291 63.6997 32.0191C60.2858 35.7092 60.604 41.5555 64.4106 45.0773Z" fill="#F6F6F6" fill-opacity="0.06"/>
<path d="M80.9521 60.3818C84.7587 63.9036 90.6121 63.7672 94.0261 60.0771C97.4401 56.3871 97.1218 50.5407 93.3152 47.0189C89.5086 43.4971 83.6552 43.6335 80.2412 47.3236C76.8273 51.0136 77.1455 56.86 80.9521 60.3818Z" fill="#F6F6F6" fill-opacity="0.06"/>
<path d="M83.4686 82.55C87.2752 86.0718 93.1286 85.9354 96.5426 82.2454C99.9566 78.5553 99.6383 72.709 95.8317 69.1872C92.0251 65.6654 86.1717 65.8018 82.7577 69.4918C79.3437 73.1819 79.662 79.0282 83.4686 82.55Z" fill="#F6F6F6" fill-opacity="0.06"/>
<path d="M70.4414 84.6839C70.5649 79.7388 70.7035 75.5516 70.7994 70.581C70.8664 67.9645 70.575 65.0164 69.2386 62.5894C69.0342 62.202 68.8051 61.8412 68.5513 61.5072C67.9609 60.7626 67.2166 60.0739 66.4998 59.4107C65.7829 58.7475 65.0386 58.0589 64.1981 57.5293C63.8454 57.3022 63.468 57.1018 63.0658 56.9281C60.5425 55.784 57.6082 55.7478 54.9772 55.9921C50.0566 56.499 45.8928 56.9622 40.9446 57.4436C34.0938 57.6032 26.0698 57.3718 21.8775 63.5623C20.1549 67.028 19.6702 71.5894 22.5647 75.7058C24.2064 77.9687 32.089 82.3351 38.9263 88.6608L39.4226 89.12C46.2599 95.4457 51.2495 102.939 53.6082 104.427C57.9369 106.993 62.4716 106.129 65.7685 104.17C71.6673 99.5083 70.8139 91.5264 70.4414 84.6839Z" fill="#F6F6F6" fill-opacity="0.06"/>
</g>
<defs>
<clipPath id="clip0_266_679">
<rect width="90.1423" height="87.3827" fill="white" transform="translate(59.3789 0.740723) rotate(42.7745)"/>
</clipPath>
</defs>
</svg>
