<svg width="465" height="591" viewBox="0 0 465 591" fill="none" xmlns="http://www.w3.org/2000/svg">
<g clip-path="url(#clip0_266_667)">
<path d="M215.497 172.03C234.992 190.067 264.969 189.368 282.454 170.47C299.938 151.572 298.308 121.631 278.813 103.594C259.318 85.558 229.341 86.2565 211.856 105.155C194.372 124.053 196.002 153.994 215.497 172.03Z" fill="#F6F6F6" fill-opacity="0.06"/>
<path d="M329.686 176.065C349.181 194.101 379.159 193.403 396.643 174.505C414.127 155.607 412.497 125.665 393.002 107.629C373.507 89.5924 343.53 90.2909 326.045 109.189C308.561 128.087 310.191 158.028 329.686 176.065Z" fill="#F6F6F6" fill-opacity="0.06"/>
<path d="M414.402 254.445C433.896 272.481 463.874 271.783 481.358 252.884C498.842 233.986 497.213 204.045 477.718 186.009C458.223 167.972 428.245 168.671 410.761 187.569C393.277 206.467 394.907 236.408 414.402 254.445Z" fill="#F6F6F6" fill-opacity="0.06"/>
<path d="M427.289 367.977C446.784 386.013 476.761 385.315 494.246 366.417C511.73 347.518 510.1 317.577 490.605 299.541C471.11 281.504 441.133 282.203 423.648 301.101C406.164 319.999 407.794 349.94 427.289 367.977Z" fill="#F6F6F6" fill-opacity="0.06"/>
<path d="M360.572 378.905C361.205 353.579 361.915 332.135 362.406 306.678C362.749 293.278 361.257 278.18 354.412 265.751C353.366 263.766 352.193 261.919 350.893 260.208C347.869 256.395 344.057 252.868 340.386 249.471C336.715 246.075 332.903 242.548 328.598 239.836C326.792 238.673 324.859 237.646 322.799 236.757C309.877 230.898 294.849 230.712 281.375 231.964C256.174 234.56 234.85 236.931 209.509 239.397C174.423 240.214 133.329 239.029 111.859 270.733C103.037 288.483 100.554 311.843 115.379 332.925C123.786 344.514 164.156 366.875 199.172 399.272L201.714 401.623C236.73 434.02 262.284 472.396 274.364 480.015C296.533 493.159 319.756 488.734 336.641 478.698C366.851 454.826 362.48 413.948 360.572 378.905Z" fill="#F6F6F6" fill-opacity="0.06"/>
</g>
<defs>
<clipPath id="clip0_266_667">
<rect width="461.652" height="447.519" fill="white" transform="translate(303.917 -51) rotate(42.7745)"/>
</clipPath>
</defs>
</svg>
