<svg width="107" height="107" viewBox="0 0 107 107" fill="none" xmlns="http://www.w3.org/2000/svg">
<g clip-path="url(#clip0_266_691)">
<path d="M35.8904 37.4967C39.0946 40.4611 44.0216 40.3463 46.8953 37.2403C49.7689 34.1342 49.501 29.2132 46.2969 26.2488C43.0928 23.2843 38.1657 23.3992 35.2921 26.5052C32.4184 29.6112 32.6863 34.5323 35.8904 37.4967Z" fill="#F6F6F6" fill-opacity="0.05"/>
<path d="M54.6583 38.1597C57.8624 41.1241 62.7894 41.0093 65.6631 37.9032C68.5367 34.7972 68.2688 29.8761 65.0647 26.9117C61.8606 23.9473 56.9336 24.0621 54.0599 27.1681C51.1862 30.2742 51.4541 35.1952 54.6583 38.1597Z" fill="#F6F6F6" fill-opacity="0.05"/>
<path d="M68.5818 51.0419C71.7859 54.0063 76.7129 53.8915 79.5866 50.7855C82.4603 47.6794 82.1924 42.7584 78.9882 39.7939C75.7841 36.8295 70.8571 36.9443 67.9834 40.0504C65.1098 43.1564 65.3777 48.0775 68.5818 51.0419Z" fill="#F6F6F6" fill-opacity="0.05"/>
<path d="M70.6999 69.7016C73.904 72.666 78.831 72.5512 81.7047 69.4452C84.5784 66.3392 84.3105 61.4181 81.1063 58.4537C77.9022 55.4893 72.9752 55.6041 70.1015 58.7101C67.2279 61.8161 67.4958 66.7372 70.6999 69.7016Z" fill="#F6F6F6" fill-opacity="0.05"/>
<path d="M59.7344 71.4979C59.8384 67.3354 59.955 63.8109 60.0358 59.627C60.0922 57.4246 59.8469 54.9431 58.722 52.9003C58.5499 52.5741 58.3571 52.2704 58.1435 51.9893C57.6466 51.3625 57.02 50.7828 56.4166 50.2246C55.8133 49.6664 55.1867 49.0867 54.4793 48.641C54.1824 48.4498 53.8647 48.2811 53.5261 48.1349C51.4022 47.1719 48.9323 47.1414 46.7177 47.3471C42.5759 47.7738 39.0711 48.1636 34.906 48.5688C29.1395 48.7032 22.3854 48.5084 18.8566 53.7191C17.4066 56.6364 16.9986 60.4758 19.4351 63.9407C20.8169 65.8455 27.452 69.5208 33.2071 74.8454L33.6249 75.2319C39.38 80.5565 43.58 86.8638 45.5654 88.1162C49.209 90.2764 53.026 89.5491 55.8011 87.8997C60.7663 83.9761 60.0479 77.2575 59.7344 71.4979Z" fill="#F6F6F6" fill-opacity="0.05"/>
</g>
<defs>
<clipPath id="clip0_266_691">
<rect width="75.8758" height="73.5529" fill="white" transform="translate(50.4229 0.840088) rotate(42.7745)"/>
</clipPath>
</defs>
</svg>
