<svg width="79" height="79" viewBox="0 0 79 79" fill="none" xmlns="http://www.w3.org/2000/svg">
<g clip-path="url(#clip0_266_703)">
<path d="M26.792 27.9045C29.147 30.0833 32.7684 29.9989 34.8806 27.716C36.9927 25.433 36.7958 21.816 34.4408 19.6371C32.0857 17.4583 28.4643 17.5427 26.3522 19.8256C24.24 22.1086 24.4369 25.7256 26.792 27.9045Z" fill="#F6F6F6" fill-opacity="0.04"/>
<path d="M40.5865 28.3918C42.9415 30.5707 46.5629 30.4863 48.6751 28.2033C50.7872 25.9204 50.5903 22.3034 48.2353 20.1245C45.8802 17.9456 42.2588 18.03 40.1467 20.313C38.0345 22.5959 38.2314 26.213 40.5865 28.3918Z" fill="#F6F6F6" fill-opacity="0.04"/>
<path d="M50.8202 37.8604C53.1753 40.0393 56.7967 39.9549 58.9088 37.672C61.021 35.389 60.8241 31.772 58.469 29.5931C56.114 27.4143 52.4926 27.4986 50.3804 29.7816C48.2683 32.0646 48.4652 35.6816 50.8202 37.8604Z" fill="#F6F6F6" fill-opacity="0.04"/>
<path d="M52.3771 51.5754C54.7322 53.7543 58.3536 53.6699 60.4657 51.3869C62.5779 49.104 62.381 45.487 60.0259 43.3081C57.6709 41.1292 54.0495 41.2136 51.9373 43.4966C49.8252 45.7795 50.0221 49.3966 52.3771 51.5754Z" fill="#F6F6F6" fill-opacity="0.04"/>
<path d="M44.3174 52.8958C44.3938 49.8363 44.4795 47.2458 44.5389 44.1706C44.5803 42.5518 44.4 40.7278 43.5732 39.2263C43.4468 38.9866 43.305 38.7634 43.148 38.5568C42.7828 38.0961 42.3222 37.67 41.8788 37.2597C41.4353 36.8494 40.9748 36.4234 40.4548 36.0957C40.2366 35.9552 40.0031 35.8312 39.7542 35.7238C38.1931 35.016 36.3777 34.9935 34.75 35.1447C31.7057 35.4583 29.1297 35.7449 26.0683 36.0427C21.8299 36.1415 16.8656 35.9983 14.2719 39.8282C13.2061 41.9724 12.9062 44.7944 14.697 47.3412C15.7127 48.7412 20.5895 51.4426 24.8196 55.3562L25.1266 55.6402C29.3567 59.5539 32.4437 64.1898 33.903 65.1103C36.5811 66.6981 39.3866 66.1635 41.4263 64.9512C45.0758 62.0673 44.5478 57.1291 44.3174 52.8958Z" fill="#F6F6F6" fill-opacity="0.04"/>
</g>
<defs>
<clipPath id="clip0_266_703">
<rect width="55.7693" height="54.0619" fill="white" transform="translate(37.4736 0.96167) rotate(42.7745)"/>
</clipPath>
</defs>
</svg>
